<svg xmlns="http://www.w3.org/2000/svg" width="28.913" height="28.913" viewBox="0 0 28.913 28.913"><defs><style>.a{fill:#00ace9;}</style></defs><path class="a" d="M10.385,2H22.528a8.391,8.391,0,0,1,8.385,8.385V22.528a8.385,8.385,0,0,1-8.385,8.385H10.385A8.391,8.391,0,0,1,2,22.528V10.385A8.385,8.385,0,0,1,10.385,2M10.1,4.891a5.2,5.2,0,0,0-5.2,5.2V22.817a5.2,5.2,0,0,0,5.2,5.2H22.817a5.2,5.2,0,0,0,5.2-5.2V10.1a5.2,5.2,0,0,0-5.2-5.2H10.1M24.046,7.06a1.807,1.807,0,1,1-1.807,1.807A1.807,1.807,0,0,1,24.046,7.06m-7.59,2.168a7.228,7.228,0,1,1-7.228,7.228,7.228,7.228,0,0,1,7.228-7.228m0,2.891a4.337,4.337,0,1,0,4.337,4.337,4.337,4.337,0,0,0-4.337-4.337Z" transform="translate(-2 -2)"/></svg>