<svg xmlns="http://www.w3.org/2000/svg" width="30.243" height="24.576" viewBox="0 0 30.243 24.576"><defs><style>.a{fill:#00ace9;}</style></defs><path class="a" d="M31.783,6.891a12.386,12.386,0,0,1-3.556,1,6.214,6.214,0,0,0,2.718-3.441,12.492,12.492,0,0,1-3.932,1.518A6.107,6.107,0,0,0,22.444,4a6.194,6.194,0,0,0-6.173,6.2,6.446,6.446,0,0,0,.159,1.417A17.629,17.629,0,0,1,3.651,5.142,6.178,6.178,0,0,0,5.573,13.4a6.133,6.133,0,0,1-2.819-.723v.043A6.206,6.206,0,0,0,7.727,18.8a6.081,6.081,0,0,1-2.79.1,6.187,6.187,0,0,0,5.783,4.308,12.319,12.319,0,0,1-7.705,2.66,12.61,12.61,0,0,1-1.475-.087,17.556,17.556,0,0,0,9.512,2.79c11.392,0,17.651-9.455,17.651-17.651,0-.275,0-.535-.014-.81A12.391,12.391,0,0,0,31.783,6.891Z" transform="translate(-1.54 -4)"/></svg>