<svg xmlns="http://www.w3.org/2000/svg" width="24.585" height="28.913" viewBox="0 0 24.585 28.913"><defs><style>.a{fill:#00ace9;}</style></defs><path class="a" d="M23.755,2a1.208,1.208,0,0,0-1.113.8S13.65,18.726,13.39,19.247l5.9,10.871a1.28,1.28,0,0,0,1.157.8h4.163a.617.617,0,0,0,.549-.26.652.652,0,0,0,0-.651l-5.884-10.77L28.511,2.911a.693.693,0,0,0,.014-.651A.662.662,0,0,0,27.962,2M6.234,7.71a.564.564,0,0,0-.535.9l2.8,4.915L4.08,21.328a.844.844,0,0,0,0,.651.577.577,0,0,0,.535.26H8.793a1.27,1.27,0,0,0,1.142-.8s4.322-7.647,4.5-7.951L11.568,8.505a1.285,1.285,0,0,0-1.171-.8" transform="translate(-4.015 -2)"/></svg>