<svg xmlns="http://www.w3.org/2000/svg" width="28.913" height="20.239" viewBox="0 0 28.913 20.239"><defs><style>.a{fill:#00ace9;}</style></defs><path class="a" d="M13.565,19.456l7.5-4.337-7.5-4.337v8.674M30.277,8.137a14.946,14.946,0,0,1,.4,2.747c.1,1.157.145,2.154.145,3.021l.087,1.214a28.722,28.722,0,0,1-.636,6.982,3.387,3.387,0,0,1-2.5,2.5,20.381,20.381,0,0,1-3.831.4c-1.879.1-3.6.145-5.19.145l-2.3.087c-6.057,0-9.83-.231-11.319-.636a3.387,3.387,0,0,1-2.5-2.5,14.946,14.946,0,0,1-.4-2.747c-.1-1.157-.145-2.154-.145-3.021L2,15.12a28.722,28.722,0,0,1,.636-6.982,3.387,3.387,0,0,1,2.5-2.5,20.381,20.381,0,0,1,3.831-.4c1.879-.1,3.6-.145,5.19-.145L16.456,5c6.057,0,9.83.231,11.319.636A3.387,3.387,0,0,1,30.277,8.137Z" transform="translate(-2 -5)"/></svg>