<svg id="Ebene_1" data-name="Ebene 1" xmlns="http://www.w3.org/2000/svg" viewBox="0 0 158.13 223.38"><defs><style>.cls-1{fill:#0f3f93;}</style></defs><title>crauhut-speechbubble-R-blau</title><path class="cls-1" d="M119.12,98.49q-28.54,0-39.53,9.88t-11,36.24v83.45q0,26.36,11,36.24,7.57,6.81,23.49,8.93V165.34h48.77q21.07,0,30.13,9.14T191,204.71q0,11.67-3.4,19.42a25.42,25.42,0,0,1-10.36,11.93l18.28,38.12h0L219,321.87h7.7V274.18h0V98.49Z" transform="translate(-68.6 -98.49)"/><polygon class="cls-1" points="65.13 175.7 93.68 175.7 78.02 142.45 65.13 142.45 65.13 175.7"/><path class="cls-1" d="M157.07,216.9q1.74-1.57,1.74-5.75V197.91q0-4.18-1.74-5.75t-6.27-1.57H133.73v27.87H150.8q4.53,0,6.27-1.57" transform="translate(-68.6 -98.49)"/></svg>