<svg xmlns="http://www.w3.org/2000/svg" xmlns:xlink="http://www.w3.org/1999/xlink" width="78.154" height="105.31" viewBox="0 0 78.154 105.31">
  <defs>
    <clipPath id="clip-path">
      <rect width="78.154" height="105.31" fill="none"/>
    </clipPath>
  </defs>
  <g id="realexperts-bildmarke" clip-path="url(#clip-path)">
    <path id="Pfad_38" data-name="Pfad 38" d="M47.062,38.669q0,3.526-1.469,4.853t-5.308,1.322H25.877V21.318h0V14.934H26.91l3.137,6.384H40.285q3.82,0,5.294,1.322t1.469,4.853ZM62.645,59.693a21.466,21.466,0,0,0,8.749-10.071q2.844-6.54,2.867-16.394,0-17.787-7.645-25.507T41.181,0H0V91.892H25.877V63.811h10.9L50.01,91.892H78.091Z" fill="#fff"/>
    <path id="Pfad_39" data-name="Pfad 39" d="M72.124,210.832l-.313,1.82a11.119,11.119,0,0,0,3.1.412,3.938,3.938,0,0,0,2.469-.616,2.409,2.409,0,0,0,.758-1.986,2.3,2.3,0,0,0-.654-1.8,3.753,3.753,0,0,0-2.161-.72l-1.028-.09V206.77a7.3,7.3,0,0,1,1.057-.062,8.16,8.16,0,0,1,.986.057q.474.057,1.114.18l.275-1.773a12.051,12.051,0,0,0-2.844-.337,4.706,4.706,0,0,0-1.744.265,1.7,1.7,0,0,0-.924.853,3.792,3.792,0,0,0-.284,1.607,2.78,2.78,0,0,0,.256,1.3,1.675,1.675,0,0,0,.844.739,5.177,5.177,0,0,0,1.6.346l1.142.1v1.081a7.067,7.067,0,0,1-1.119.076,8.575,8.575,0,0,1-2.526-.374m-2.758-3.981H71.21v-1.82H65.333v1.82h1.834v6.029h2.209Zm-8.929,0h1.232a.688.688,0,0,1,.474.114.545.545,0,0,1,.123.417v.948a.546.546,0,0,1-.123.412.682.682,0,0,1-.474.114H60.446Zm4.46,6.029-1.318-2.749a1.836,1.836,0,0,0,.749-.863,3.5,3.5,0,0,0,.246-1.422,3.018,3.018,0,0,0-.654-2.18A2.978,2.978,0,0,0,61.759,205H58.243v7.848h2.209v-2.4H61.4l1.128,2.4Zm-10.9-3.114h2.626V208.14H54.006v-1.294h2.844l.275-1.82H51.787v7.848h5.289v-1.82H54Zm-7.185-.564v-2.37h1.166a.689.689,0,0,1,.474.114.546.546,0,0,1,.123.417v1.294a.546.546,0,0,1-.123.417.686.686,0,0,1-.474.114Zm0,1.621h1.422a2.55,2.55,0,0,0,2-.716,3.284,3.284,0,0,0,.64-2.237,3.018,3.018,0,0,0-.654-2.18,2.978,2.978,0,0,0-2.171-.659H44.6v7.848h2.209Zm-3.071,2.062-2.412-3.867,2.337-3.981h-2.4l-1.18,2-1.232-2H36.4l2.337,3.73-2.422,4.119h2.4l1.256-2.147,1.346,2.147Zm-11.242-3.114h2.626v-1.621H32.508v-1.294h2.844l.275-1.82H30.29v7.848h5.289v-1.82H32.5Zm-10.427,3.114H26.82v-1.82H24.308v-6.029H22.1Zm-5.446-2.991.73-2.749h.114l.73,2.749Zm2.37,2.991h2.209l-2.085-7.848H15.7l-2.085,7.848H15.82l.365-1.37h2.45ZM9.83,209.765h2.626v-1.621H9.83v-1.294h2.844l.275-1.82H7.621v7.848h5.284v-1.82H9.83Zm-7.621-2.915H3.441a.688.688,0,0,1,.474.114.545.545,0,0,1,.123.417v.948a.546.546,0,0,1-.123.412.682.682,0,0,1-.474.114H2.209Zm4.46,6.029L5.351,210.13a1.836,1.836,0,0,0,.749-.863,3.5,3.5,0,0,0,.246-1.422,3.018,3.018,0,0,0-.654-2.18,2.978,2.978,0,0,0-2.171-.659H0v7.848H2.209v-2.4h.948l1.109,2.422Z" transform="translate(0 -107.754)" fill="#fff"/>
  </g>
</svg>
