<?xml version="1.0" encoding="utf-8"?>
<!-- Generator: Adobe Illustrator 20.1.0, SVG Export Plug-In . SVG Version: 6.00 Build 0)  -->
<svg version="1.1" id="Ebene_1" xmlns="http://www.w3.org/2000/svg" xmlns:xlink="http://www.w3.org/1999/xlink" x="0px" y="0px"
	 viewBox="0 0 340.2 35.9" style="enable-background:new 0 0 340.2 35.9;" xml:space="preserve">
<style type="text/css">
	.st0{fill:#FFFFFF;}
</style>
<path class="st0" d="M312.8,26.1l-1.4,7.9c4.1,1.2,8.6,1.8,13.4,1.8c4.9,0,8.5-0.9,10.7-2.7s3.3-4.6,3.3-8.6c0-3.5-0.9-6.1-2.8-7.8
	c-1.9-1.7-5-2.7-9.3-3.1l-4.4-0.4V8.6c1.2-0.2,2.7-0.3,4.6-0.3c1.5,0,2.9,0.1,4.3,0.2c1.4,0.2,3,0.4,4.8,0.8l1.2-7.6
	c-4-1-8.1-1.5-12.3-1.5c-3.2,0-5.7,0.4-7.5,1.1c-1.8,0.8-3.2,2-4,3.7s-1.2,4-1.2,6.9c0,2.4,0.4,4.2,1.1,5.6s2,2.5,3.6,3.2
	c1.7,0.7,4,1.2,6.9,1.5l4.9,0.4v4.7c-1.3,0.2-2.9,0.3-4.8,0.3C319.9,27.7,316.3,27.2,312.8,26.1"/>
<polygon class="st0" points="300.9,8.9 308.8,8.9 308.8,1 283.4,1 283.4,8.9 291.3,8.9 291.3,34.9 300.8,34.9 300.8,8.9 "/>
<path class="st0" d="M275.9,23c1.4-0.9,2.5-2.1,3.2-3.7c0.7-1.6,1.1-3.6,1.1-6c0-4.4-0.9-7.5-2.8-9.4C275.5,2,272.3,1,268,1h-15.2
	v33.9h9.5V24.6h4l4.9,10.4l10.4-0.1L275.9,23z M270.1,15.3c0,0.9-0.2,1.5-0.5,1.8c-0.4,0.3-1,0.5-2,0.5h-5.3V8.9h5.3
	c0.9,0,1.6,0.2,2,0.5c0.4,0.3,0.5,0.9,0.5,1.8V15.3z"/>
<polygon class="st0" points="234.5,21.5 245.8,21.5 245.8,14.5 234.5,14.5 234.5,8.9 246.8,8.9 248,1 225,1 225,34.9 247.8,34.9 
	247.8,27 234.5,27 "/>
<path class="st0" d="M218.3,3.8c-1.9-1.9-5-2.8-9.4-2.8H194v33.9h9.5V26h6.2c3.9,0,6.8-1,8.6-3.1c1.8-2.1,2.8-5.3,2.8-9.7
	S220.2,5.7,218.3,3.8z M211,16.8c0,0.9-0.2,1.5-0.5,1.8c-0.4,0.3-1,0.5-2,0.5l-5-0.1V8.9h5c0.9,0,1.6,0.2,2,0.5
	c0.4,0.3,0.5,0.9,0.5,1.8V16.8z"/>
<polygon class="st0" points="190.3,34.9 179.9,18.2 189.9,1 179.5,1 174.4,9.6 169.1,1 158.5,1 168.6,17.1 158.1,34.9 168.5,34.9 
	173.9,25.6 179.7,34.9 "/>
<polygon class="st0" points="141.7,21.5 153,21.5 153,14.5 141.7,14.5 141.7,8.9 154,8.9 155.2,1 132.2,1 132.2,34.9 155,34.9 
	155,27 141.7,27 "/>
<polygon class="st0" points="96.8,34.9 117.2,34.9 117.2,27 106.4,27 106.4,1 96.9,1 96.8,34.9 "/>
<path class="st0" d="M84.1,1H69.3l-9,33.9h9.5l1.6-5.9H82l1.5,5.9H93L84.1,1z M73.3,22l3.1-11.9h0.5L80.1,22H73.3z"/>
<polygon class="st0" points="43.9,21.5 55.2,21.5 55.2,14.5 43.9,14.5 43.9,8.9 56.2,8.9 57.3,1 34.3,1 34.3,34.9 57.1,34.9 
	57.1,27 43.9,27 "/>
<g>
	<path class="st0" d="M18.9,15.3c0,0.9-0.3,1.5-0.6,1.8c-0.4,0.3-1,0.5-2,0.5H11V8.9l0,0V6.5h0.4l1.2,2.4h3.8c0.9,0,1.6,0.2,2,0.5
		s0.5,0.9,0.5,1.8V15.3L18.9,15.3z M24.5,23c1.4-0.9,2.5-2.1,3.2-3.7s1.1-3.6,1.1-6c0-4.4-0.9-7.5-2.8-9.4C24.1,2,21,1,16.6,1H1.4
		v33.9H11V24.6h4L19.9,35h10.4L24.5,23z"/>
</g>
</svg>
