<?xml version="1.0" encoding="utf-8"?>
<!-- Generator: Adobe Illustrator 23.0.4, SVG Export Plug-In . SVG Version: 6.00 Build 0)  -->
<svg version="1.1" id="Ebene_1" xmlns="http://www.w3.org/2000/svg" xmlns:xlink="http://www.w3.org/1999/xlink" x="0px" y="0px"
	 viewBox="0 0 218 23" style="enable-background:new 0 0 218 23;" xml:space="preserve">
<style type="text/css">
	.st0{fill:#FFFFFF;}
</style>
<path id="Pfad_1" class="st0" d="M201.2,16.73l-0.9,5.1c2.82,0.8,5.73,1.19,8.66,1.16c3.17,0,5.49-0.58,6.91-1.75
	S218,18.28,218,15.7c0-2.26-0.58-3.94-1.81-5.04s-3.23-1.74-6.01-2l-2.84-0.26V5.43c0.98-0.14,1.98-0.21,2.97-0.19
	c0.97,0,1.87,0.07,2.78,0.13c0.9,0.13,1.94,0.26,3.1,0.52l0.77-4.91C214.37,0.32,211.7,0,209.02,0c-1.64-0.06-3.29,0.18-4.85,0.71
	c-1.13,0.45-2.05,1.3-2.58,2.39c-0.58,1.41-0.84,2.93-0.77,4.46c-0.05,1.24,0.19,2.48,0.71,3.62c0.51,0.94,1.33,1.67,2.33,2.07
	c1.43,0.53,2.93,0.85,4.46,0.97l3.17,0.26v3.04c-1.03,0.14-2.06,0.21-3.1,0.19C205.95,17.79,203.52,17.46,201.2,16.73"/>
<path id="Pfad_2" class="st0" d="M193.51,5.62h5.1v-5.1H182.2v5.1h5.1v16.8h6.14V5.62H193.51z"/>
<path id="Pfad_3" class="st0" d="M177.36,14.73c0.91-0.57,1.64-1.4,2.07-2.39c0.5-1.23,0.74-2.55,0.71-3.88
	c0-2.84-0.58-4.85-1.81-6.07s-3.3-1.87-6.07-1.87h-9.82v21.9h6.14v-6.65h2.58l3.17,6.72l6.72-0.07L177.36,14.73z M173.61,9.76
	c0.04,0.41-0.07,0.83-0.32,1.16c-0.38,0.25-0.84,0.36-1.29,0.32h-3.42V5.62H172c0.45-0.03,0.9,0.09,1.29,0.32
	c0.26,0.19,0.32,0.58,0.32,1.16V9.76z"/>
<path id="Pfad_4" class="st0" d="M150.61,13.76h7.3V9.24h-7.3V5.62h7.95l0.77-5.1h-14.86v21.9h14.73v-5.1h-8.59V13.76z"/>
<path id="Pfad_5" class="st0" d="M140.14,2.33c-1.23-1.23-3.23-1.81-6.07-1.81h-9.63v21.9h6.14v-5.75h4.01c2.52,0,4.39-0.65,5.56-2
	s1.81-3.42,1.81-6.27S141.37,3.55,140.14,2.33z M135.43,10.73c0.04,0.41-0.07,0.83-0.32,1.16c-0.38,0.25-0.84,0.36-1.29,0.32
	l-3.23-0.06V5.62h3.23c0.45-0.03,0.9,0.09,1.29,0.32c0.26,0.19,0.32,0.58,0.32,1.16V10.73z"/>
<path id="Pfad_6" class="st0" d="M122.05,22.42l-6.72-10.79l6.47-11.11h-6.72l-3.3,5.56l-3.42-5.56h-6.85l6.53,10.4l-6.78,11.5h6.72
	l3.49-6.01l3.75,6.01L122.05,22.42z"/>
<path id="Pfad_7" class="st0" d="M90.65,13.76h7.3V9.24h-7.3V5.62h7.95l0.77-5.1H84.51v21.9h14.73v-5.1h-8.59V13.76z"/>
<path id="Pfad_8" class="st0" d="M61.64,22.42h13.18v-5.1h-6.98V0.52H61.7L61.64,22.42z"/>
<path id="Pfad_9" class="st0" d="M53.43,0.52h-9.56l-5.81,21.9h6.14l1.03-3.81h6.85l0.97,3.81h6.14L53.43,0.52z M46.46,14.09l2-7.69
	h0.32l2.07,7.69H46.46z"/>
<path id="Pfad_10" class="st0" d="M27.46,13.76h7.3V9.24h-7.3V5.62h7.95l0.71-5.1H21.26v21.9h14.73v-5.1h-8.53V13.76z"/>
<path id="Pfad_11" class="st0" d="M11.31,9.76c0.03,0.42-0.11,0.84-0.39,1.16c-0.38,0.25-0.84,0.36-1.29,0.32H6.2V5.62l0,0V4.07
	h0.26l0.78,1.55h2.46c0.45-0.03,0.9,0.09,1.29,0.32c0.26,0.19,0.32,0.58,0.32,1.16V9.76L11.31,9.76z M14.93,14.73
	c0.91-0.57,1.64-1.4,2.07-2.39c0.5-1.23,0.74-2.55,0.71-3.88c0-2.84-0.58-4.85-1.81-6.07s-3.23-1.87-6.07-1.87H0v21.9h6.2v-6.65
	h2.58l3.17,6.72h6.72L14.93,14.73z"/>
</svg>
